<svg width="413" height="69" viewBox="0 0 413 69" fill="none" xmlns="http://www.w3.org/2000/svg">
<path d="M14.4 30.24H46.656V42.72H14.4V30.24ZM15.552 67.2H0V0H33.532V12.48H15.552V67.2Z" fill="black"/>
<path d="M98.7217 67.2L128.674 0H144.034L174.082 67.2H157.762L133.186 7.872H139.33L114.658 67.2H98.7217Z" fill="black"/>
<path d="M258.464 68.352C248.928 68.352 241.471 65.696 236.096 60.384C230.719 55.072 228.031 47.488 228.031 37.632V0H243.583V37.056C243.583 43.456 244.896 48.064 247.52 50.88C250.143 53.696 253.824 55.104 258.56 55.104C263.296 55.104 266.976 53.696 269.6 50.88C272.224 48.064 273.536 43.456 273.536 37.056V0H288.896V37.632C288.896 47.488 286.208 55.072 280.832 60.384C275.456 65.696 268 68.352 258.464 68.352Z" fill="black"/>
<path d="M344.606 67.2L373.502 27.36V38.688L345.854 0H363.518L382.622 26.976L375.23 27.072L394.046 0H410.942L383.486 38.016V26.88L412.574 67.2H394.622L374.846 38.688H381.95L362.462 67.2H344.606Z" fill="black"/>
</svg>
