<svg id="Layer_1" data-name="Layer 1" xmlns="http://www.w3.org/2000/svg" viewBox="0 0 122.88 108.1"><defs><style>.cls-1{fill:#ef1c25;fill-rule:evenodd;}</style></defs><title>speed-test</title><path d="M114.71,66H104.65v-9.7h10a53.23,53.23,0,0,0-14-31.15l-5.43,5.43L88.4,23.71l5.07-5.07A53.21,53.21,0,0,0,64.79,8.08v7.09H55.1V8.35a53.23,53.23,0,0,0-28,12.16l5.32,5.32-6.85,6.85-5.29-5.29a53.17,53.17,0,0,0-12,28.89H17V66H8.17A53.19,53.19,0,0,0,19.82,95l7.39-7.39,6.85,6.85-7.5,7.5.1.08-5.17,6A61.47,61.47,0,1,1,103,106.7l-3.51-3.81,0,0L91,94.47l6.85-6.85L104,93.81a53.84,53.84,0,0,0,6.41-10.87,53.12,53.12,0,0,0,4.3-17Zm-53.27-25a17.9,17.9,0,0,1,3.61.36L53.8,49.83a3.09,3.09,0,0,0-.39.33c-4.31,3.62-5.3,8.19-4.23,12.16a11.83,11.83,0,0,0,3.12,5.33,11.56,11.56,0,0,0,5.45,3c4.14,1,9-.28,13-5.39a3.28,3.28,0,0,0,.27-.38l7.8-10.72a18.05,18.05,0,0,1-7.25,19.64,18,18,0,1,1-10.13-32.9Z"/><path class="cls-1" d="M85.62,30.71,56.2,53C46.74,60.58,59,73.76,67.62,62.84L88.87,33.65l-3.25-2.94Z"/></svg>